<svg width="800" height="480" viewBox="0 0 800 480" xmlns="http://www.w3.org/2000/svg">
<rect x="0" y="0" width="800" height="480" opacity="1" fill="#FFFFFF" stroke="none"/>
<line opacity="1" stroke="#FFFFFF" stroke-width="1" x1="65" y1="414" x2="65" y2="25"/>
<line opacity="1" stroke="#FFFFFF" stroke-width="1" x1="78" y1="414" x2="78" y2="25"/>
<line opacity="1" stroke="#FFFFFF" stroke-width="1" x1="92" y1="414" x2="92" y2="25"/>
<line opacity="1" stroke="#FFFFFF" stroke-width="1" x1="105" y1="414" x2="105" y2="25"/>
<line opacity="1" stroke="#FFFFFF" stroke-width="1" x1="119" y1="414" x2="119" y2="25"/>
<line opacity="1" stroke="#FFFFFF" stroke-width="1" x1="133" y1="414" x2="133" y2="25"/>
<line opacity="1" stroke="#FFFFFF" stroke-width="1" x1="146" y1="414" x2="146" y2="25"/>
<line opacity="1" stroke="#FFFFFF" stroke-width="1" x1="160" y1="414" x2="160" y2="25"/>
<line opacity="1" stroke="#FFFFFF" stroke-width="1" x1="174" y1="414" x2="174" y2="25"/>
<line opacity="1" stroke="#FFFFFF" stroke-width="1" x1="187" y1="414" x2="187" y2="25"/>
<line opacity="1" stroke="#FFFFFF" stroke-width="1" x1="201" y1="414" x2="201" y2="25"/>
<line opacity="1" stroke="#FFFFFF" stroke-width="1" x1="214" y1="414" x2="214" y2="25"/>
<line opacity="1" stroke="#FFFFFF" stroke-width="1" x1="228" y1="414" x2="228" y2="25"/>
<line opacity="1" stroke="#FFFFFF" stroke-width="1" x1="242" y1="414" x2="242" y2="25"/>
<line opacity="1" stroke="#FFFFFF" stroke-width="1" x1="255" y1="414" x2="255" y2="25"/>
<line opacity="1" stroke="#FFFFFF" stroke-width="1" x1="269" y1="414" x2="269" y2="25"/>
<line opacity="1" stroke="#FFFFFF" stroke-width="1" x1="283" y1="414" x2="283" y2="25"/>
<line opacity="1" stroke="#FFFFFF" stroke-width="1" x1="296" y1="414" x2="296" y2="25"/>
<line opacity="1" stroke="#FFFFFF" stroke-width="1" x1="310" y1="414" x2="310" y2="25"/>
<line opacity="1" stroke="#FFFFFF" stroke-width="1" x1="324" y1="414" x2="324" y2="25"/>
<line opacity="1" stroke="#FFFFFF" stroke-width="1" x1="337" y1="414" x2="337" y2="25"/>
<line opacity="1" stroke="#FFFFFF" stroke-width="1" x1="351" y1="414" x2="351" y2="25"/>
<line opacity="1" stroke="#FFFFFF" stroke-width="1" x1="364" y1="414" x2="364" y2="25"/>
<line opacity="1" stroke="#FFFFFF" stroke-width="1" x1="378" y1="414" x2="378" y2="25"/>
<line opacity="1" stroke="#FFFFFF" stroke-width="1" x1="392" y1="414" x2="392" y2="25"/>
<line opacity="1" stroke="#FFFFFF" stroke-width="1" x1="405" y1="414" x2="405" y2="25"/>
<line opacity="1" stroke="#FFFFFF" stroke-width="1" x1="419" y1="414" x2="419" y2="25"/>
<line opacity="1" stroke="#FFFFFF" stroke-width="1" x1="433" y1="414" x2="433" y2="25"/>
<line opacity="1" stroke="#FFFFFF" stroke-width="1" x1="446" y1="414" x2="446" y2="25"/>
<line opacity="1" stroke="#FFFFFF" stroke-width="1" x1="460" y1="414" x2="460" y2="25"/>
<line opacity="1" stroke="#FFFFFF" stroke-width="1" x1="474" y1="414" x2="474" y2="25"/>
<line opacity="1" stroke="#FFFFFF" stroke-width="1" x1="487" y1="414" x2="487" y2="25"/>
<line opacity="1" stroke="#FFFFFF" stroke-width="1" x1="501" y1="414" x2="501" y2="25"/>
<line opacity="1" stroke="#FFFFFF" stroke-width="1" x1="514" y1="414" x2="514" y2="25"/>
<line opacity="1" stroke="#FFFFFF" stroke-width="1" x1="528" y1="414" x2="528" y2="25"/>
<line opacity="1" stroke="#FFFFFF" stroke-width="1" x1="542" y1="414" x2="542" y2="25"/>
<line opacity="1" stroke="#FFFFFF" stroke-width="1" x1="555" y1="414" x2="555" y2="25"/>
<line opacity="1" stroke="#FFFFFF" stroke-width="1" x1="569" y1="414" x2="569" y2="25"/>
<line opacity="1" stroke="#FFFFFF" stroke-width="1" x1="583" y1="414" x2="583" y2="25"/>
<line opacity="1" stroke="#FFFFFF" stroke-width="1" x1="596" y1="414" x2="596" y2="25"/>
<line opacity="1" stroke="#FFFFFF" stroke-width="1" x1="610" y1="414" x2="610" y2="25"/>
<line opacity="1" stroke="#FFFFFF" stroke-width="1" x1="624" y1="414" x2="624" y2="25"/>
<line opacity="1" stroke="#FFFFFF" stroke-width="1" x1="637" y1="414" x2="637" y2="25"/>
<line opacity="1" stroke="#FFFFFF" stroke-width="1" x1="651" y1="414" x2="651" y2="25"/>
<line opacity="1" stroke="#FFFFFF" stroke-width="1" x1="664" y1="414" x2="664" y2="25"/>
<line opacity="1" stroke="#FFFFFF" stroke-width="1" x1="678" y1="414" x2="678" y2="25"/>
<line opacity="1" stroke="#FFFFFF" stroke-width="1" x1="692" y1="414" x2="692" y2="25"/>
<line opacity="1" stroke="#FFFFFF" stroke-width="1" x1="705" y1="414" x2="705" y2="25"/>
<line opacity="1" stroke="#FFFFFF" stroke-width="1" x1="719" y1="414" x2="719" y2="25"/>
<line opacity="1" stroke="#FFFFFF" stroke-width="1" x1="733" y1="414" x2="733" y2="25"/>
<line opacity="1" stroke="#FFFFFF" stroke-width="1" x1="746" y1="414" x2="746" y2="25"/>
<line opacity="1" stroke="#FFFFFF" stroke-width="1" x1="760" y1="414" x2="760" y2="25"/>
<line opacity="1" stroke="#FFFFFF" stroke-width="1" x1="774" y1="414" x2="774" y2="25"/>
<line opacity="1" stroke="#FFFFFF" stroke-width="1" x1="65" y1="414" x2="774" y2="414"/>
<line opacity="1" stroke="#FFFFFF" stroke-width="1" x1="65" y1="411" x2="774" y2="411"/>
<line opacity="1" stroke="#FFFFFF" stroke-width="1" x1="65" y1="407" x2="774" y2="407"/>
<line opacity="1" stroke="#FFFFFF" stroke-width="1" x1="65" y1="403" x2="774" y2="403"/>
<line opacity="1" stroke="#FFFFFF" stroke-width="1" x1="65" y1="399" x2="774" y2="399"/>
<line opacity="1" stroke="#FFFFFF" stroke-width="1" x1="65" y1="395" x2="774" y2="395"/>
<line opacity="1" stroke="#FFFFFF" stroke-width="1" x1="65" y1="391" x2="774" y2="391"/>
<line opacity="1" stroke="#FFFFFF" stroke-width="1" x1="65" y1="387" x2="774" y2="387"/>
<line opacity="1" stroke="#FFFFFF" stroke-width="1" x1="65" y1="383" x2="774" y2="383"/>
<line opacity="1" stroke="#FFFFFF" stroke-width="1" x1="65" y1="379" x2="774" y2="379"/>
<line opacity="1" stroke="#FFFFFF" stroke-width="1" x1="65" y1="376" x2="774" y2="376"/>
<line opacity="1" stroke="#FFFFFF" stroke-width="1" x1="65" y1="372" x2="774" y2="372"/>
<line opacity="1" stroke="#FFFFFF" stroke-width="1" x1="65" y1="368" x2="774" y2="368"/>
<line opacity="1" stroke="#FFFFFF" stroke-width="1" x1="65" y1="364" x2="774" y2="364"/>
<line opacity="1" stroke="#FFFFFF" stroke-width="1" x1="65" y1="360" x2="774" y2="360"/>
<line opacity="1" stroke="#FFFFFF" stroke-width="1" x1="65" y1="356" x2="774" y2="356"/>
<line opacity="1" stroke="#FFFFFF" stroke-width="1" x1="65" y1="352" x2="774" y2="352"/>
<line opacity="1" stroke="#FFFFFF" stroke-width="1" x1="65" y1="348" x2="774" y2="348"/>
<line opacity="1" stroke="#FFFFFF" stroke-width="1" x1="65" y1="344" x2="774" y2="344"/>
<line opacity="1" stroke="#FFFFFF" stroke-width="1" x1="65" y1="341" x2="774" y2="341"/>
<line opacity="1" stroke="#FFFFFF" stroke-width="1" x1="65" y1="337" x2="774" y2="337"/>
<line opacity="1" stroke="#FFFFFF" stroke-width="1" x1="65" y1="333" x2="774" y2="333"/>
<line opacity="1" stroke="#FFFFFF" stroke-width="1" x1="65" y1="329" x2="774" y2="329"/>
<line opacity="1" stroke="#FFFFFF" stroke-width="1" x1="65" y1="325" x2="774" y2="325"/>
<line opacity="1" stroke="#FFFFFF" stroke-width="1" x1="65" y1="321" x2="774" y2="321"/>
<line opacity="1" stroke="#FFFFFF" stroke-width="1" x1="65" y1="317" x2="774" y2="317"/>
<line opacity="1" stroke="#FFFFFF" stroke-width="1" x1="65" y1="313" x2="774" y2="313"/>
<line opacity="1" stroke="#FFFFFF" stroke-width="1" x1="65" y1="309" x2="774" y2="309"/>
<line opacity="1" stroke="#FFFFFF" stroke-width="1" x1="65" y1="306" x2="774" y2="306"/>
<line opacity="1" stroke="#FFFFFF" stroke-width="1" x1="65" y1="302" x2="774" y2="302"/>
<line opacity="1" stroke="#FFFFFF" stroke-width="1" x1="65" y1="298" x2="774" y2="298"/>
<line opacity="1" stroke="#FFFFFF" stroke-width="1" x1="65" y1="294" x2="774" y2="294"/>
<line opacity="1" stroke="#FFFFFF" stroke-width="1" x1="65" y1="290" x2="774" y2="290"/>
<line opacity="1" stroke="#FFFFFF" stroke-width="1" x1="65" y1="286" x2="774" y2="286"/>
<line opacity="1" stroke="#FFFFFF" stroke-width="1" x1="65" y1="282" x2="774" y2="282"/>
<line opacity="1" stroke="#FFFFFF" stroke-width="1" x1="65" y1="278" x2="774" y2="278"/>
<line opacity="1" stroke="#FFFFFF" stroke-width="1" x1="65" y1="274" x2="774" y2="274"/>
<line opacity="1" stroke="#FFFFFF" stroke-width="1" x1="65" y1="271" x2="774" y2="271"/>
<line opacity="1" stroke="#FFFFFF" stroke-width="1" x1="65" y1="267" x2="774" y2="267"/>
<line opacity="1" stroke="#FFFFFF" stroke-width="1" x1="65" y1="263" x2="774" y2="263"/>
<line opacity="1" stroke="#FFFFFF" stroke-width="1" x1="65" y1="259" x2="774" y2="259"/>
<line opacity="1" stroke="#FFFFFF" stroke-width="1" x1="65" y1="255" x2="774" y2="255"/>
<line opacity="1" stroke="#FFFFFF" stroke-width="1" x1="65" y1="251" x2="774" y2="251"/>
<line opacity="1" stroke="#FFFFFF" stroke-width="1" x1="65" y1="247" x2="774" y2="247"/>
<line opacity="1" stroke="#FFFFFF" stroke-width="1" x1="65" y1="243" x2="774" y2="243"/>
<line opacity="1" stroke="#FFFFFF" stroke-width="1" x1="65" y1="239" x2="774" y2="239"/>
<line opacity="1" stroke="#FFFFFF" stroke-width="1" x1="65" y1="236" x2="774" y2="236"/>
<line opacity="1" stroke="#FFFFFF" stroke-width="1" x1="65" y1="232" x2="774" y2="232"/>
<line opacity="1" stroke="#FFFFFF" stroke-width="1" x1="65" y1="228" x2="774" y2="228"/>
<line opacity="1" stroke="#FFFFFF" stroke-width="1" x1="65" y1="224" x2="774" y2="224"/>
<line opacity="1" stroke="#FFFFFF" stroke-width="1" x1="65" y1="220" x2="774" y2="220"/>
<line opacity="1" stroke="#FFFFFF" stroke-width="1" x1="65" y1="216" x2="774" y2="216"/>
<line opacity="1" stroke="#FFFFFF" stroke-width="1" x1="65" y1="212" x2="774" y2="212"/>
<line opacity="1" stroke="#FFFFFF" stroke-width="1" x1="65" y1="208" x2="774" y2="208"/>
<line opacity="1" stroke="#FFFFFF" stroke-width="1" x1="65" y1="204" x2="774" y2="204"/>
<line opacity="1" stroke="#FFFFFF" stroke-width="1" x1="65" y1="201" x2="774" y2="201"/>
<line opacity="1" stroke="#FFFFFF" stroke-width="1" x1="65" y1="197" x2="774" y2="197"/>
<line opacity="1" stroke="#FFFFFF" stroke-width="1" x1="65" y1="193" x2="774" y2="193"/>
<line opacity="1" stroke="#FFFFFF" stroke-width="1" x1="65" y1="189" x2="774" y2="189"/>
<line opacity="1" stroke="#FFFFFF" stroke-width="1" x1="65" y1="185" x2="774" y2="185"/>
<line opacity="1" stroke="#FFFFFF" stroke-width="1" x1="65" y1="181" x2="774" y2="181"/>
<line opacity="1" stroke="#FFFFFF" stroke-width="1" x1="65" y1="177" x2="774" y2="177"/>
<line opacity="1" stroke="#FFFFFF" stroke-width="1" x1="65" y1="173" x2="774" y2="173"/>
<line opacity="1" stroke="#FFFFFF" stroke-width="1" x1="65" y1="169" x2="774" y2="169"/>
<line opacity="1" stroke="#FFFFFF" stroke-width="1" x1="65" y1="166" x2="774" y2="166"/>
<line opacity="1" stroke="#FFFFFF" stroke-width="1" x1="65" y1="162" x2="774" y2="162"/>
<line opacity="1" stroke="#FFFFFF" stroke-width="1" x1="65" y1="158" x2="774" y2="158"/>
<line opacity="1" stroke="#FFFFFF" stroke-width="1" x1="65" y1="154" x2="774" y2="154"/>
<line opacity="1" stroke="#FFFFFF" stroke-width="1" x1="65" y1="150" x2="774" y2="150"/>
<line opacity="1" stroke="#FFFFFF" stroke-width="1" x1="65" y1="146" x2="774" y2="146"/>
<line opacity="1" stroke="#FFFFFF" stroke-width="1" x1="65" y1="142" x2="774" y2="142"/>
<line opacity="1" stroke="#FFFFFF" stroke-width="1" x1="65" y1="138" x2="774" y2="138"/>
<line opacity="1" stroke="#FFFFFF" stroke-width="1" x1="65" y1="134" x2="774" y2="134"/>
<line opacity="1" stroke="#FFFFFF" stroke-width="1" x1="65" y1="131" x2="774" y2="131"/>
<line opacity="1" stroke="#FFFFFF" stroke-width="1" x1="65" y1="127" x2="774" y2="127"/>
<line opacity="1" stroke="#FFFFFF" stroke-width="1" x1="65" y1="123" x2="774" y2="123"/>
<line opacity="1" stroke="#FFFFFF" stroke-width="1" x1="65" y1="119" x2="774" y2="119"/>
<line opacity="1" stroke="#FFFFFF" stroke-width="1" x1="65" y1="115" x2="774" y2="115"/>
<line opacity="1" stroke="#FFFFFF" stroke-width="1" x1="65" y1="111" x2="774" y2="111"/>
<line opacity="1" stroke="#FFFFFF" stroke-width="1" x1="65" y1="107" x2="774" y2="107"/>
<line opacity="1" stroke="#FFFFFF" stroke-width="1" x1="65" y1="103" x2="774" y2="103"/>
<line opacity="1" stroke="#FFFFFF" stroke-width="1" x1="65" y1="99" x2="774" y2="99"/>
<line opacity="1" stroke="#FFFFFF" stroke-width="1" x1="65" y1="96" x2="774" y2="96"/>
<line opacity="1" stroke="#FFFFFF" stroke-width="1" x1="65" y1="92" x2="774" y2="92"/>
<line opacity="1" stroke="#FFFFFF" stroke-width="1" x1="65" y1="88" x2="774" y2="88"/>
<line opacity="1" stroke="#FFFFFF" stroke-width="1" x1="65" y1="84" x2="774" y2="84"/>
<line opacity="1" stroke="#FFFFFF" stroke-width="1" x1="65" y1="80" x2="774" y2="80"/>
<line opacity="1" stroke="#FFFFFF" stroke-width="1" x1="65" y1="76" x2="774" y2="76"/>
<line opacity="1" stroke="#FFFFFF" stroke-width="1" x1="65" y1="72" x2="774" y2="72"/>
<line opacity="1" stroke="#FFFFFF" stroke-width="1" x1="65" y1="68" x2="774" y2="68"/>
<line opacity="1" stroke="#FFFFFF" stroke-width="1" x1="65" y1="64" x2="774" y2="64"/>
<line opacity="1" stroke="#FFFFFF" stroke-width="1" x1="65" y1="61" x2="774" y2="61"/>
<line opacity="1" stroke="#FFFFFF" stroke-width="1" x1="65" y1="57" x2="774" y2="57"/>
<line opacity="1" stroke="#FFFFFF" stroke-width="1" x1="65" y1="53" x2="774" y2="53"/>
<line opacity="1" stroke="#FFFFFF" stroke-width="1" x1="65" y1="49" x2="774" y2="49"/>
<line opacity="1" stroke="#FFFFFF" stroke-width="1" x1="65" y1="45" x2="774" y2="45"/>
<line opacity="1" stroke="#FFFFFF" stroke-width="1" x1="65" y1="41" x2="774" y2="41"/>
<line opacity="1" stroke="#FFFFFF" stroke-width="1" x1="65" y1="37" x2="774" y2="37"/>
<line opacity="1" stroke="#FFFFFF" stroke-width="1" x1="65" y1="33" x2="774" y2="33"/>
<line opacity="1" stroke="#FFFFFF" stroke-width="1" x1="65" y1="29" x2="774" y2="29"/>
<line opacity="1" stroke="#FFFFFF" stroke-width="1" x1="65" y1="25" x2="774" y2="25"/>
<text x="25" y="220" dy="0.76em" text-anchor="middle" font-family="sans-serif" font-size="16.129032258064516" opacity="1" fill="#000000" transform="rotate(270, 25, 220)">
Popularity
</text>
<text x="420" y="455" dy="-0.5ex" text-anchor="middle" font-family="sans-serif" font-size="16.129032258064516" opacity="1" fill="#000000">
Time
</text>
<line opacity="0.2" stroke="#000000" stroke-width="1" x1="65" y1="414" x2="65" y2="25"/>
<line opacity="0.2" stroke="#000000" stroke-width="1" x1="184" y1="414" x2="184" y2="25"/>
<line opacity="0.2" stroke="#000000" stroke-width="1" x1="304" y1="414" x2="304" y2="25"/>
<line opacity="0.2" stroke="#000000" stroke-width="1" x1="424" y1="414" x2="424" y2="25"/>
<line opacity="0.2" stroke="#000000" stroke-width="1" x1="544" y1="414" x2="544" y2="25"/>
<line opacity="0.2" stroke="#000000" stroke-width="1" x1="664" y1="414" x2="664" y2="25"/>
<line opacity="0.2" stroke="#000000" stroke-width="1" x1="65" y1="414" x2="774" y2="414"/>
<line opacity="0.2" stroke="#000000" stroke-width="1" x1="65" y1="376" x2="774" y2="376"/>
<line opacity="0.2" stroke="#000000" stroke-width="1" x1="65" y1="337" x2="774" y2="337"/>
<line opacity="0.2" stroke="#000000" stroke-width="1" x1="65" y1="298" x2="774" y2="298"/>
<line opacity="0.2" stroke="#000000" stroke-width="1" x1="65" y1="259" x2="774" y2="259"/>
<line opacity="0.2" stroke="#000000" stroke-width="1" x1="65" y1="220" x2="774" y2="220"/>
<line opacity="0.2" stroke="#000000" stroke-width="1" x1="65" y1="181" x2="774" y2="181"/>
<line opacity="0.2" stroke="#000000" stroke-width="1" x1="65" y1="142" x2="774" y2="142"/>
<line opacity="0.2" stroke="#000000" stroke-width="1" x1="65" y1="103" x2="774" y2="103"/>
<line opacity="0.2" stroke="#000000" stroke-width="1" x1="65" y1="64" x2="774" y2="64"/>
<line opacity="0.2" stroke="#000000" stroke-width="1" x1="65" y1="25" x2="774" y2="25"/>
<polyline fill="none" opacity="1" stroke="#000000" stroke-width="1" points="64,25 64,414 "/>
<text x="55" y="414" dy="0.5ex" text-anchor="end" font-family="sans-serif" font-size="9.67741935483871" opacity="1" fill="#000000">
0
</text>
<polyline fill="none" opacity="1" stroke="#000000" stroke-width="1" points="59,414 64,414 "/>
<text x="55" y="376" dy="0.5ex" text-anchor="end" font-family="sans-serif" font-size="9.67741935483871" opacity="1" fill="#000000">
10
</text>
<polyline fill="none" opacity="1" stroke="#000000" stroke-width="1" points="59,376 64,376 "/>
<text x="55" y="337" dy="0.5ex" text-anchor="end" font-family="sans-serif" font-size="9.67741935483871" opacity="1" fill="#000000">
20
</text>
<polyline fill="none" opacity="1" stroke="#000000" stroke-width="1" points="59,337 64,337 "/>
<text x="55" y="298" dy="0.5ex" text-anchor="end" font-family="sans-serif" font-size="9.67741935483871" opacity="1" fill="#000000">
30
</text>
<polyline fill="none" opacity="1" stroke="#000000" stroke-width="1" points="59,298 64,298 "/>
<text x="55" y="259" dy="0.5ex" text-anchor="end" font-family="sans-serif" font-size="9.67741935483871" opacity="1" fill="#000000">
40
</text>
<polyline fill="none" opacity="1" stroke="#000000" stroke-width="1" points="59,259 64,259 "/>
<text x="55" y="220" dy="0.5ex" text-anchor="end" font-family="sans-serif" font-size="9.67741935483871" opacity="1" fill="#000000">
50
</text>
<polyline fill="none" opacity="1" stroke="#000000" stroke-width="1" points="59,220 64,220 "/>
<text x="55" y="181" dy="0.5ex" text-anchor="end" font-family="sans-serif" font-size="9.67741935483871" opacity="1" fill="#000000">
60
</text>
<polyline fill="none" opacity="1" stroke="#000000" stroke-width="1" points="59,181 64,181 "/>
<text x="55" y="142" dy="0.5ex" text-anchor="end" font-family="sans-serif" font-size="9.67741935483871" opacity="1" fill="#000000">
70
</text>
<polyline fill="none" opacity="1" stroke="#000000" stroke-width="1" points="59,142 64,142 "/>
<text x="55" y="103" dy="0.5ex" text-anchor="end" font-family="sans-serif" font-size="9.67741935483871" opacity="1" fill="#000000">
80
</text>
<polyline fill="none" opacity="1" stroke="#000000" stroke-width="1" points="59,103 64,103 "/>
<text x="55" y="64" dy="0.5ex" text-anchor="end" font-family="sans-serif" font-size="9.67741935483871" opacity="1" fill="#000000">
90
</text>
<polyline fill="none" opacity="1" stroke="#000000" stroke-width="1" points="59,64 64,64 "/>
<text x="55" y="25" dy="0.5ex" text-anchor="end" font-family="sans-serif" font-size="9.67741935483871" opacity="1" fill="#000000">
100
</text>
<polyline fill="none" opacity="1" stroke="#000000" stroke-width="1" points="59,25 64,25 "/>
<polyline fill="none" opacity="1" stroke="#000000" stroke-width="1" points="65,415 774,415 "/>
<text x="65" y="425" dy="0.76em" text-anchor="middle" font-family="sans-serif" font-size="8.064516129032258" opacity="1" fill="#000000">
2017-09-17T00:00:00Z
</text>
<polyline fill="none" opacity="1" stroke="#000000" stroke-width="1" points="65,415 65,420 "/>
<text x="184" y="425" dy="0.76em" text-anchor="middle" font-family="sans-serif" font-size="8.064516129032258" opacity="1" fill="#000000">
2018-07-22T00:00:00Z
</text>
<polyline fill="none" opacity="1" stroke="#000000" stroke-width="1" points="184,415 184,420 "/>
<text x="304" y="425" dy="0.76em" text-anchor="middle" font-family="sans-serif" font-size="8.064516129032258" opacity="1" fill="#000000">
2019-05-26T00:00:00Z
</text>
<polyline fill="none" opacity="1" stroke="#000000" stroke-width="1" points="304,415 304,420 "/>
<text x="424" y="425" dy="0.76em" text-anchor="middle" font-family="sans-serif" font-size="8.064516129032258" opacity="1" fill="#000000">
2020-03-29T00:00:00Z
</text>
<polyline fill="none" opacity="1" stroke="#000000" stroke-width="1" points="424,415 424,420 "/>
<text x="544" y="425" dy="0.76em" text-anchor="middle" font-family="sans-serif" font-size="8.064516129032258" opacity="1" fill="#000000">
2021-01-31T00:00:00Z
</text>
<polyline fill="none" opacity="1" stroke="#000000" stroke-width="1" points="544,415 544,420 "/>
<text x="664" y="425" dy="0.76em" text-anchor="middle" font-family="sans-serif" font-size="8.064516129032258" opacity="1" fill="#000000">
2021-12-05T00:00:00Z
</text>
<polyline fill="none" opacity="1" stroke="#000000" stroke-width="1" points="664,415 664,420 "/>
<polyline fill="none" opacity="0.9" stroke="#E6194B" stroke-width="3" points="65,290 67,286 70,278 73,278 75,282 78,278 81,282 84,286 86,282 89,290 92,282 94,282 97,302 100,290 103,286 105,278 108,282 111,282 114,286 116,278 119,286 122,286 124,290 127,294 130,290 133,286 135,294 138,282 141,282 144,278 146,278 149,286 152,282 154,286 157,286 160,267 163,259 165,278 168,278 171,282 174,267 176,271 179,267 182,271 184,274 187,274 190,278 193,286 195,290 198,290 201,290 204,286 206,278 209,282 212,274 214,282 217,278 220,278 223,278 225,282 228,290 231,286 234,282 236,274 239,286 242,278 244,282 247,267 250,267 253,290 255,290 258,290 261,278 264,274 266,278 269,286 272,274 274,278 277,278 280,278 283,274 285,267 288,271 291,263 294,271 296,271 299,286 302,267 304,271 307,267 310,263 313,263 315,239 318,228 321,236 324,247 326,255 329,251 332,255 334,251 337,255 340,239 343,243 345,259 348,267 351,267 354,267 356,274 359,255 362,271 364,278 367,278 370,278 373,271 375,271 378,271 381,271 384,267 386,267 389,251 392,263 394,259 397,271 400,271 403,271 405,263 408,263 411,278 414,267 416,282 419,274 422,259 424,232 427,228 430,228 433,236 435,220 438,220 441,212 444,216 446,208 449,220 452,212 454,228 457,224 460,232 463,220 465,216 468,220 471,228 474,220 476,232 479,220 482,212 484,224 487,224 490,239 493,243 495,251 498,263 501,263 504,263 506,267 509,263 512,267 514,274 517,278 520,251 523,255 525,267 528,263 531,189 534,76 536,25 539,99 542,162 544,166 547,166 550,169 553,220 555,204 558,212 561,228 564,224 566,204 569,212 572,220 574,228 577,228 580,204 583,208 585,162 588,146 591,150 594,189 596,201 599,201 602,181 604,142 607,169 610,154 613,193 615,169 618,185 621,197 624,204 626,208 629,197 632,193 634,201 637,232 640,216 643,208 645,134 648,134 651,197 654,208 656,224 659,212 662,212 664,220 667,239 670,232 673,201 675,158 678,142 681,208 684,181 686,173 689,181 692,201 694,197 697,208 700,204 703,204 705,204 708,201 711,189 714,166 716,193 719,169 722,185 724,185 727,204 730,193 733,185 735,173 738,169 741,177 744,169 746,173 749,177 752,189 754,177 757,166 760,134 763,177 765,193 768,193 771,197 774,204 "/>
<polyline fill="none" opacity="0.9" stroke="#3CB44B" stroke-width="3" points="65,352 67,348 70,348 73,333 75,321 78,321 81,306 84,302 86,306 89,306 92,263 94,232 97,220 100,197 103,267 105,251 108,228 111,251 114,271 116,274 119,294 122,302 124,298 127,309 130,313 133,306 135,309 138,321 141,325 144,325 146,321 149,317 152,321 154,321 157,313 160,329 163,325 165,325 168,333 171,333 174,337 176,344 179,337 182,337 184,337 187,337 190,344 193,344 195,344 198,333 201,337 204,337 206,337 209,333 212,333 214,337 217,337 220,337 223,341 225,341 228,337 231,348 234,341 236,344 239,356 242,360 244,372 247,368 250,356 253,360 255,356 258,360 261,360 264,360 266,356 269,356 272,360 274,364 277,360 280,352 283,352 285,356 288,360 291,348 294,348 296,344 299,344 302,352 304,344 307,360 310,356 313,344 315,344 318,360 321,360 324,360 326,364 329,364 332,364 334,368 337,364 340,368 343,372 345,368 348,364 351,364 354,368 356,368 359,368 362,372 364,360 367,364 370,368 373,368 375,368 378,368 381,368 384,372 386,379 389,376 392,368 394,364 397,368 400,372 403,368 405,368 408,364 411,372 414,372 416,372 419,379 422,376 424,376 427,372 430,372 433,372 435,368 438,368 441,368 444,368 446,372 449,372 452,368 454,372 457,372 460,372 463,372 465,368 468,368 471,360 474,372 476,368 479,364 482,372 484,372 487,372 490,372 493,368 495,376 498,372 501,376 504,376 506,372 509,364 512,364 514,368 517,364 520,368 523,368 525,360 528,364 531,356 534,321 536,329 539,337 542,341 544,333 547,309 550,282 553,302 555,321 558,309 561,325 564,325 566,333 569,333 572,309 574,313 577,325 580,317 583,306 585,321 588,333 591,337 594,337 596,348 599,352 602,356 604,360 607,360 610,360 613,352 615,360 618,348 621,352 624,348 626,348 629,348 632,344 634,348 637,356 640,348 643,341 645,329 648,321 651,321 654,313 656,317 659,329 662,329 664,333 667,333 670,337 673,344 675,306 678,313 681,313 684,302 686,309 689,309 692,313 694,321 697,325 700,325 703,325 705,317 708,321 711,321 714,333 716,325 719,325 722,333 724,321 727,329 730,333 733,341 735,333 738,344 741,344 744,344 746,344 749,344 752,348 754,352 757,348 760,352 763,356 765,352 768,356 771,352 774,356 "/>
<rect x="643" y="189" width="127" height="61" opacity="1" fill="#FFFFFF" stroke="none"/>
<rect x="643" y="189" width="127" height="61" opacity="1" fill="none" stroke="#000000"/>
<text x="683" y="199" dy="0.76em" text-anchor="start" font-family="sans-serif" font-size="16.129032258064516" opacity="1" fill="#000000">
Rust
</text>
<text x="683" y="224" dy="0.76em" text-anchor="start" font-family="sans-serif" font-size="16.129032258064516" opacity="1" fill="#000000">
Blockchain
</text>
<polyline fill="none" opacity="0.9" stroke="#E6194B" stroke-width="1" points="653,207 678,207 "/>
<polyline fill="none" opacity="0.9" stroke="#3CB44B" stroke-width="1" points="653,232 678,232 "/>
</svg>
