<svg width="800" height="480" viewBox="0 0 800 480" xmlns="http://www.w3.org/2000/svg">
<rect x="0" y="0" width="800" height="480" opacity="1" fill="#FFFFFF" stroke="none"/>
<line opacity="1" stroke="#FFFFFF" stroke-width="1" x1="65" y1="414" x2="65" y2="25"/>
<line opacity="1" stroke="#FFFFFF" stroke-width="1" x1="78" y1="414" x2="78" y2="25"/>
<line opacity="1" stroke="#FFFFFF" stroke-width="1" x1="92" y1="414" x2="92" y2="25"/>
<line opacity="1" stroke="#FFFFFF" stroke-width="1" x1="106" y1="414" x2="106" y2="25"/>
<line opacity="1" stroke="#FFFFFF" stroke-width="1" x1="120" y1="414" x2="120" y2="25"/>
<line opacity="1" stroke="#FFFFFF" stroke-width="1" x1="134" y1="414" x2="134" y2="25"/>
<line opacity="1" stroke="#FFFFFF" stroke-width="1" x1="148" y1="414" x2="148" y2="25"/>
<line opacity="1" stroke="#FFFFFF" stroke-width="1" x1="162" y1="414" x2="162" y2="25"/>
<line opacity="1" stroke="#FFFFFF" stroke-width="1" x1="176" y1="414" x2="176" y2="25"/>
<line opacity="1" stroke="#FFFFFF" stroke-width="1" x1="190" y1="414" x2="190" y2="25"/>
<line opacity="1" stroke="#FFFFFF" stroke-width="1" x1="204" y1="414" x2="204" y2="25"/>
<line opacity="1" stroke="#FFFFFF" stroke-width="1" x1="217" y1="414" x2="217" y2="25"/>
<line opacity="1" stroke="#FFFFFF" stroke-width="1" x1="231" y1="414" x2="231" y2="25"/>
<line opacity="1" stroke="#FFFFFF" stroke-width="1" x1="245" y1="414" x2="245" y2="25"/>
<line opacity="1" stroke="#FFFFFF" stroke-width="1" x1="259" y1="414" x2="259" y2="25"/>
<line opacity="1" stroke="#FFFFFF" stroke-width="1" x1="273" y1="414" x2="273" y2="25"/>
<line opacity="1" stroke="#FFFFFF" stroke-width="1" x1="287" y1="414" x2="287" y2="25"/>
<line opacity="1" stroke="#FFFFFF" stroke-width="1" x1="301" y1="414" x2="301" y2="25"/>
<line opacity="1" stroke="#FFFFFF" stroke-width="1" x1="315" y1="414" x2="315" y2="25"/>
<line opacity="1" stroke="#FFFFFF" stroke-width="1" x1="329" y1="414" x2="329" y2="25"/>
<line opacity="1" stroke="#FFFFFF" stroke-width="1" x1="343" y1="414" x2="343" y2="25"/>
<line opacity="1" stroke="#FFFFFF" stroke-width="1" x1="356" y1="414" x2="356" y2="25"/>
<line opacity="1" stroke="#FFFFFF" stroke-width="1" x1="370" y1="414" x2="370" y2="25"/>
<line opacity="1" stroke="#FFFFFF" stroke-width="1" x1="384" y1="414" x2="384" y2="25"/>
<line opacity="1" stroke="#FFFFFF" stroke-width="1" x1="398" y1="414" x2="398" y2="25"/>
<line opacity="1" stroke="#FFFFFF" stroke-width="1" x1="412" y1="414" x2="412" y2="25"/>
<line opacity="1" stroke="#FFFFFF" stroke-width="1" x1="426" y1="414" x2="426" y2="25"/>
<line opacity="1" stroke="#FFFFFF" stroke-width="1" x1="440" y1="414" x2="440" y2="25"/>
<line opacity="1" stroke="#FFFFFF" stroke-width="1" x1="454" y1="414" x2="454" y2="25"/>
<line opacity="1" stroke="#FFFFFF" stroke-width="1" x1="468" y1="414" x2="468" y2="25"/>
<line opacity="1" stroke="#FFFFFF" stroke-width="1" x1="482" y1="414" x2="482" y2="25"/>
<line opacity="1" stroke="#FFFFFF" stroke-width="1" x1="495" y1="414" x2="495" y2="25"/>
<line opacity="1" stroke="#FFFFFF" stroke-width="1" x1="509" y1="414" x2="509" y2="25"/>
<line opacity="1" stroke="#FFFFFF" stroke-width="1" x1="523" y1="414" x2="523" y2="25"/>
<line opacity="1" stroke="#FFFFFF" stroke-width="1" x1="537" y1="414" x2="537" y2="25"/>
<line opacity="1" stroke="#FFFFFF" stroke-width="1" x1="551" y1="414" x2="551" y2="25"/>
<line opacity="1" stroke="#FFFFFF" stroke-width="1" x1="565" y1="414" x2="565" y2="25"/>
<line opacity="1" stroke="#FFFFFF" stroke-width="1" x1="579" y1="414" x2="579" y2="25"/>
<line opacity="1" stroke="#FFFFFF" stroke-width="1" x1="593" y1="414" x2="593" y2="25"/>
<line opacity="1" stroke="#FFFFFF" stroke-width="1" x1="607" y1="414" x2="607" y2="25"/>
<line opacity="1" stroke="#FFFFFF" stroke-width="1" x1="621" y1="414" x2="621" y2="25"/>
<line opacity="1" stroke="#FFFFFF" stroke-width="1" x1="634" y1="414" x2="634" y2="25"/>
<line opacity="1" stroke="#FFFFFF" stroke-width="1" x1="648" y1="414" x2="648" y2="25"/>
<line opacity="1" stroke="#FFFFFF" stroke-width="1" x1="662" y1="414" x2="662" y2="25"/>
<line opacity="1" stroke="#FFFFFF" stroke-width="1" x1="676" y1="414" x2="676" y2="25"/>
<line opacity="1" stroke="#FFFFFF" stroke-width="1" x1="690" y1="414" x2="690" y2="25"/>
<line opacity="1" stroke="#FFFFFF" stroke-width="1" x1="704" y1="414" x2="704" y2="25"/>
<line opacity="1" stroke="#FFFFFF" stroke-width="1" x1="718" y1="414" x2="718" y2="25"/>
<line opacity="1" stroke="#FFFFFF" stroke-width="1" x1="732" y1="414" x2="732" y2="25"/>
<line opacity="1" stroke="#FFFFFF" stroke-width="1" x1="746" y1="414" x2="746" y2="25"/>
<line opacity="1" stroke="#FFFFFF" stroke-width="1" x1="760" y1="414" x2="760" y2="25"/>
<line opacity="1" stroke="#FFFFFF" stroke-width="1" x1="774" y1="414" x2="774" y2="25"/>
<line opacity="1" stroke="#FFFFFF" stroke-width="1" x1="65" y1="414" x2="774" y2="414"/>
<line opacity="1" stroke="#FFFFFF" stroke-width="1" x1="65" y1="411" x2="774" y2="411"/>
<line opacity="1" stroke="#FFFFFF" stroke-width="1" x1="65" y1="407" x2="774" y2="407"/>
<line opacity="1" stroke="#FFFFFF" stroke-width="1" x1="65" y1="403" x2="774" y2="403"/>
<line opacity="1" stroke="#FFFFFF" stroke-width="1" x1="65" y1="399" x2="774" y2="399"/>
<line opacity="1" stroke="#FFFFFF" stroke-width="1" x1="65" y1="395" x2="774" y2="395"/>
<line opacity="1" stroke="#FFFFFF" stroke-width="1" x1="65" y1="391" x2="774" y2="391"/>
<line opacity="1" stroke="#FFFFFF" stroke-width="1" x1="65" y1="387" x2="774" y2="387"/>
<line opacity="1" stroke="#FFFFFF" stroke-width="1" x1="65" y1="383" x2="774" y2="383"/>
<line opacity="1" stroke="#FFFFFF" stroke-width="1" x1="65" y1="379" x2="774" y2="379"/>
<line opacity="1" stroke="#FFFFFF" stroke-width="1" x1="65" y1="376" x2="774" y2="376"/>
<line opacity="1" stroke="#FFFFFF" stroke-width="1" x1="65" y1="372" x2="774" y2="372"/>
<line opacity="1" stroke="#FFFFFF" stroke-width="1" x1="65" y1="368" x2="774" y2="368"/>
<line opacity="1" stroke="#FFFFFF" stroke-width="1" x1="65" y1="364" x2="774" y2="364"/>
<line opacity="1" stroke="#FFFFFF" stroke-width="1" x1="65" y1="360" x2="774" y2="360"/>
<line opacity="1" stroke="#FFFFFF" stroke-width="1" x1="65" y1="356" x2="774" y2="356"/>
<line opacity="1" stroke="#FFFFFF" stroke-width="1" x1="65" y1="352" x2="774" y2="352"/>
<line opacity="1" stroke="#FFFFFF" stroke-width="1" x1="65" y1="348" x2="774" y2="348"/>
<line opacity="1" stroke="#FFFFFF" stroke-width="1" x1="65" y1="344" x2="774" y2="344"/>
<line opacity="1" stroke="#FFFFFF" stroke-width="1" x1="65" y1="341" x2="774" y2="341"/>
<line opacity="1" stroke="#FFFFFF" stroke-width="1" x1="65" y1="337" x2="774" y2="337"/>
<line opacity="1" stroke="#FFFFFF" stroke-width="1" x1="65" y1="333" x2="774" y2="333"/>
<line opacity="1" stroke="#FFFFFF" stroke-width="1" x1="65" y1="329" x2="774" y2="329"/>
<line opacity="1" stroke="#FFFFFF" stroke-width="1" x1="65" y1="325" x2="774" y2="325"/>
<line opacity="1" stroke="#FFFFFF" stroke-width="1" x1="65" y1="321" x2="774" y2="321"/>
<line opacity="1" stroke="#FFFFFF" stroke-width="1" x1="65" y1="317" x2="774" y2="317"/>
<line opacity="1" stroke="#FFFFFF" stroke-width="1" x1="65" y1="313" x2="774" y2="313"/>
<line opacity="1" stroke="#FFFFFF" stroke-width="1" x1="65" y1="309" x2="774" y2="309"/>
<line opacity="1" stroke="#FFFFFF" stroke-width="1" x1="65" y1="306" x2="774" y2="306"/>
<line opacity="1" stroke="#FFFFFF" stroke-width="1" x1="65" y1="302" x2="774" y2="302"/>
<line opacity="1" stroke="#FFFFFF" stroke-width="1" x1="65" y1="298" x2="774" y2="298"/>
<line opacity="1" stroke="#FFFFFF" stroke-width="1" x1="65" y1="294" x2="774" y2="294"/>
<line opacity="1" stroke="#FFFFFF" stroke-width="1" x1="65" y1="290" x2="774" y2="290"/>
<line opacity="1" stroke="#FFFFFF" stroke-width="1" x1="65" y1="286" x2="774" y2="286"/>
<line opacity="1" stroke="#FFFFFF" stroke-width="1" x1="65" y1="282" x2="774" y2="282"/>
<line opacity="1" stroke="#FFFFFF" stroke-width="1" x1="65" y1="278" x2="774" y2="278"/>
<line opacity="1" stroke="#FFFFFF" stroke-width="1" x1="65" y1="274" x2="774" y2="274"/>
<line opacity="1" stroke="#FFFFFF" stroke-width="1" x1="65" y1="271" x2="774" y2="271"/>
<line opacity="1" stroke="#FFFFFF" stroke-width="1" x1="65" y1="267" x2="774" y2="267"/>
<line opacity="1" stroke="#FFFFFF" stroke-width="1" x1="65" y1="263" x2="774" y2="263"/>
<line opacity="1" stroke="#FFFFFF" stroke-width="1" x1="65" y1="259" x2="774" y2="259"/>
<line opacity="1" stroke="#FFFFFF" stroke-width="1" x1="65" y1="255" x2="774" y2="255"/>
<line opacity="1" stroke="#FFFFFF" stroke-width="1" x1="65" y1="251" x2="774" y2="251"/>
<line opacity="1" stroke="#FFFFFF" stroke-width="1" x1="65" y1="247" x2="774" y2="247"/>
<line opacity="1" stroke="#FFFFFF" stroke-width="1" x1="65" y1="243" x2="774" y2="243"/>
<line opacity="1" stroke="#FFFFFF" stroke-width="1" x1="65" y1="239" x2="774" y2="239"/>
<line opacity="1" stroke="#FFFFFF" stroke-width="1" x1="65" y1="236" x2="774" y2="236"/>
<line opacity="1" stroke="#FFFFFF" stroke-width="1" x1="65" y1="232" x2="774" y2="232"/>
<line opacity="1" stroke="#FFFFFF" stroke-width="1" x1="65" y1="228" x2="774" y2="228"/>
<line opacity="1" stroke="#FFFFFF" stroke-width="1" x1="65" y1="224" x2="774" y2="224"/>
<line opacity="1" stroke="#FFFFFF" stroke-width="1" x1="65" y1="220" x2="774" y2="220"/>
<line opacity="1" stroke="#FFFFFF" stroke-width="1" x1="65" y1="216" x2="774" y2="216"/>
<line opacity="1" stroke="#FFFFFF" stroke-width="1" x1="65" y1="212" x2="774" y2="212"/>
<line opacity="1" stroke="#FFFFFF" stroke-width="1" x1="65" y1="208" x2="774" y2="208"/>
<line opacity="1" stroke="#FFFFFF" stroke-width="1" x1="65" y1="204" x2="774" y2="204"/>
<line opacity="1" stroke="#FFFFFF" stroke-width="1" x1="65" y1="201" x2="774" y2="201"/>
<line opacity="1" stroke="#FFFFFF" stroke-width="1" x1="65" y1="197" x2="774" y2="197"/>
<line opacity="1" stroke="#FFFFFF" stroke-width="1" x1="65" y1="193" x2="774" y2="193"/>
<line opacity="1" stroke="#FFFFFF" stroke-width="1" x1="65" y1="189" x2="774" y2="189"/>
<line opacity="1" stroke="#FFFFFF" stroke-width="1" x1="65" y1="185" x2="774" y2="185"/>
<line opacity="1" stroke="#FFFFFF" stroke-width="1" x1="65" y1="181" x2="774" y2="181"/>
<line opacity="1" stroke="#FFFFFF" stroke-width="1" x1="65" y1="177" x2="774" y2="177"/>
<line opacity="1" stroke="#FFFFFF" stroke-width="1" x1="65" y1="173" x2="774" y2="173"/>
<line opacity="1" stroke="#FFFFFF" stroke-width="1" x1="65" y1="169" x2="774" y2="169"/>
<line opacity="1" stroke="#FFFFFF" stroke-width="1" x1="65" y1="166" x2="774" y2="166"/>
<line opacity="1" stroke="#FFFFFF" stroke-width="1" x1="65" y1="162" x2="774" y2="162"/>
<line opacity="1" stroke="#FFFFFF" stroke-width="1" x1="65" y1="158" x2="774" y2="158"/>
<line opacity="1" stroke="#FFFFFF" stroke-width="1" x1="65" y1="154" x2="774" y2="154"/>
<line opacity="1" stroke="#FFFFFF" stroke-width="1" x1="65" y1="150" x2="774" y2="150"/>
<line opacity="1" stroke="#FFFFFF" stroke-width="1" x1="65" y1="146" x2="774" y2="146"/>
<line opacity="1" stroke="#FFFFFF" stroke-width="1" x1="65" y1="142" x2="774" y2="142"/>
<line opacity="1" stroke="#FFFFFF" stroke-width="1" x1="65" y1="138" x2="774" y2="138"/>
<line opacity="1" stroke="#FFFFFF" stroke-width="1" x1="65" y1="134" x2="774" y2="134"/>
<line opacity="1" stroke="#FFFFFF" stroke-width="1" x1="65" y1="131" x2="774" y2="131"/>
<line opacity="1" stroke="#FFFFFF" stroke-width="1" x1="65" y1="127" x2="774" y2="127"/>
<line opacity="1" stroke="#FFFFFF" stroke-width="1" x1="65" y1="123" x2="774" y2="123"/>
<line opacity="1" stroke="#FFFFFF" stroke-width="1" x1="65" y1="119" x2="774" y2="119"/>
<line opacity="1" stroke="#FFFFFF" stroke-width="1" x1="65" y1="115" x2="774" y2="115"/>
<line opacity="1" stroke="#FFFFFF" stroke-width="1" x1="65" y1="111" x2="774" y2="111"/>
<line opacity="1" stroke="#FFFFFF" stroke-width="1" x1="65" y1="107" x2="774" y2="107"/>
<line opacity="1" stroke="#FFFFFF" stroke-width="1" x1="65" y1="103" x2="774" y2="103"/>
<line opacity="1" stroke="#FFFFFF" stroke-width="1" x1="65" y1="99" x2="774" y2="99"/>
<line opacity="1" stroke="#FFFFFF" stroke-width="1" x1="65" y1="96" x2="774" y2="96"/>
<line opacity="1" stroke="#FFFFFF" stroke-width="1" x1="65" y1="92" x2="774" y2="92"/>
<line opacity="1" stroke="#FFFFFF" stroke-width="1" x1="65" y1="88" x2="774" y2="88"/>
<line opacity="1" stroke="#FFFFFF" stroke-width="1" x1="65" y1="84" x2="774" y2="84"/>
<line opacity="1" stroke="#FFFFFF" stroke-width="1" x1="65" y1="80" x2="774" y2="80"/>
<line opacity="1" stroke="#FFFFFF" stroke-width="1" x1="65" y1="76" x2="774" y2="76"/>
<line opacity="1" stroke="#FFFFFF" stroke-width="1" x1="65" y1="72" x2="774" y2="72"/>
<line opacity="1" stroke="#FFFFFF" stroke-width="1" x1="65" y1="68" x2="774" y2="68"/>
<line opacity="1" stroke="#FFFFFF" stroke-width="1" x1="65" y1="64" x2="774" y2="64"/>
<line opacity="1" stroke="#FFFFFF" stroke-width="1" x1="65" y1="61" x2="774" y2="61"/>
<line opacity="1" stroke="#FFFFFF" stroke-width="1" x1="65" y1="57" x2="774" y2="57"/>
<line opacity="1" stroke="#FFFFFF" stroke-width="1" x1="65" y1="53" x2="774" y2="53"/>
<line opacity="1" stroke="#FFFFFF" stroke-width="1" x1="65" y1="49" x2="774" y2="49"/>
<line opacity="1" stroke="#FFFFFF" stroke-width="1" x1="65" y1="45" x2="774" y2="45"/>
<line opacity="1" stroke="#FFFFFF" stroke-width="1" x1="65" y1="41" x2="774" y2="41"/>
<line opacity="1" stroke="#FFFFFF" stroke-width="1" x1="65" y1="37" x2="774" y2="37"/>
<line opacity="1" stroke="#FFFFFF" stroke-width="1" x1="65" y1="33" x2="774" y2="33"/>
<line opacity="1" stroke="#FFFFFF" stroke-width="1" x1="65" y1="29" x2="774" y2="29"/>
<line opacity="1" stroke="#FFFFFF" stroke-width="1" x1="65" y1="25" x2="774" y2="25"/>
<text x="25" y="220" dy="0.76em" text-anchor="middle" font-family="sans-serif" font-size="16.129032258064516" opacity="1" fill="#000000" transform="rotate(270, 25, 220)">
Popularity
</text>
<text x="420" y="455" dy="-0.5ex" text-anchor="middle" font-family="sans-serif" font-size="16.129032258064516" opacity="1" fill="#000000">
Time
</text>
<line opacity="0.2" stroke="#000000" stroke-width="1" x1="65" y1="414" x2="65" y2="25"/>
<line opacity="0.2" stroke="#000000" stroke-width="1" x1="190" y1="414" x2="190" y2="25"/>
<line opacity="0.2" stroke="#000000" stroke-width="1" x1="315" y1="414" x2="315" y2="25"/>
<line opacity="0.2" stroke="#000000" stroke-width="1" x1="440" y1="414" x2="440" y2="25"/>
<line opacity="0.2" stroke="#000000" stroke-width="1" x1="565" y1="414" x2="565" y2="25"/>
<line opacity="0.2" stroke="#000000" stroke-width="1" x1="690" y1="414" x2="690" y2="25"/>
<line opacity="0.2" stroke="#000000" stroke-width="1" x1="65" y1="414" x2="774" y2="414"/>
<line opacity="0.2" stroke="#000000" stroke-width="1" x1="65" y1="376" x2="774" y2="376"/>
<line opacity="0.2" stroke="#000000" stroke-width="1" x1="65" y1="337" x2="774" y2="337"/>
<line opacity="0.2" stroke="#000000" stroke-width="1" x1="65" y1="298" x2="774" y2="298"/>
<line opacity="0.2" stroke="#000000" stroke-width="1" x1="65" y1="259" x2="774" y2="259"/>
<line opacity="0.2" stroke="#000000" stroke-width="1" x1="65" y1="220" x2="774" y2="220"/>
<line opacity="0.2" stroke="#000000" stroke-width="1" x1="65" y1="181" x2="774" y2="181"/>
<line opacity="0.2" stroke="#000000" stroke-width="1" x1="65" y1="142" x2="774" y2="142"/>
<line opacity="0.2" stroke="#000000" stroke-width="1" x1="65" y1="103" x2="774" y2="103"/>
<line opacity="0.2" stroke="#000000" stroke-width="1" x1="65" y1="64" x2="774" y2="64"/>
<line opacity="0.2" stroke="#000000" stroke-width="1" x1="65" y1="25" x2="774" y2="25"/>
<polyline fill="none" opacity="1" stroke="#000000" stroke-width="1" points="64,25 64,414 "/>
<text x="55" y="414" dy="0.5ex" text-anchor="end" font-family="sans-serif" font-size="9.67741935483871" opacity="1" fill="#000000">
0
</text>
<polyline fill="none" opacity="1" stroke="#000000" stroke-width="1" points="59,414 64,414 "/>
<text x="55" y="376" dy="0.5ex" text-anchor="end" font-family="sans-serif" font-size="9.67741935483871" opacity="1" fill="#000000">
10
</text>
<polyline fill="none" opacity="1" stroke="#000000" stroke-width="1" points="59,376 64,376 "/>
<text x="55" y="337" dy="0.5ex" text-anchor="end" font-family="sans-serif" font-size="9.67741935483871" opacity="1" fill="#000000">
20
</text>
<polyline fill="none" opacity="1" stroke="#000000" stroke-width="1" points="59,337 64,337 "/>
<text x="55" y="298" dy="0.5ex" text-anchor="end" font-family="sans-serif" font-size="9.67741935483871" opacity="1" fill="#000000">
30
</text>
<polyline fill="none" opacity="1" stroke="#000000" stroke-width="1" points="59,298 64,298 "/>
<text x="55" y="259" dy="0.5ex" text-anchor="end" font-family="sans-serif" font-size="9.67741935483871" opacity="1" fill="#000000">
40
</text>
<polyline fill="none" opacity="1" stroke="#000000" stroke-width="1" points="59,259 64,259 "/>
<text x="55" y="220" dy="0.5ex" text-anchor="end" font-family="sans-serif" font-size="9.67741935483871" opacity="1" fill="#000000">
50
</text>
<polyline fill="none" opacity="1" stroke="#000000" stroke-width="1" points="59,220 64,220 "/>
<text x="55" y="181" dy="0.5ex" text-anchor="end" font-family="sans-serif" font-size="9.67741935483871" opacity="1" fill="#000000">
60
</text>
<polyline fill="none" opacity="1" stroke="#000000" stroke-width="1" points="59,181 64,181 "/>
<text x="55" y="142" dy="0.5ex" text-anchor="end" font-family="sans-serif" font-size="9.67741935483871" opacity="1" fill="#000000">
70
</text>
<polyline fill="none" opacity="1" stroke="#000000" stroke-width="1" points="59,142 64,142 "/>
<text x="55" y="103" dy="0.5ex" text-anchor="end" font-family="sans-serif" font-size="9.67741935483871" opacity="1" fill="#000000">
80
</text>
<polyline fill="none" opacity="1" stroke="#000000" stroke-width="1" points="59,103 64,103 "/>
<text x="55" y="64" dy="0.5ex" text-anchor="end" font-family="sans-serif" font-size="9.67741935483871" opacity="1" fill="#000000">
90
</text>
<polyline fill="none" opacity="1" stroke="#000000" stroke-width="1" points="59,64 64,64 "/>
<text x="55" y="25" dy="0.5ex" text-anchor="end" font-family="sans-serif" font-size="9.67741935483871" opacity="1" fill="#000000">
100
</text>
<polyline fill="none" opacity="1" stroke="#000000" stroke-width="1" points="59,25 64,25 "/>
<polyline fill="none" opacity="1" stroke="#000000" stroke-width="1" points="65,415 774,415 "/>
<text x="65" y="425" dy="0.76em" text-anchor="middle" font-family="sans-serif" font-size="8.064516129032258" opacity="1" fill="#000000">
2021-09-19T00:00:00Z
</text>
<polyline fill="none" opacity="1" stroke="#000000" stroke-width="1" points="65,415 65,420 "/>
<text x="190" y="425" dy="0.76em" text-anchor="middle" font-family="sans-serif" font-size="8.064516129032258" opacity="1" fill="#000000">
2021-11-21T00:00:00Z
</text>
<polyline fill="none" opacity="1" stroke="#000000" stroke-width="1" points="190,415 190,420 "/>
<text x="315" y="425" dy="0.76em" text-anchor="middle" font-family="sans-serif" font-size="8.064516129032258" opacity="1" fill="#000000">
2022-01-23T00:00:00Z
</text>
<polyline fill="none" opacity="1" stroke="#000000" stroke-width="1" points="315,415 315,420 "/>
<text x="440" y="425" dy="0.76em" text-anchor="middle" font-family="sans-serif" font-size="8.064516129032258" opacity="1" fill="#000000">
2022-03-27T00:00:00Z
</text>
<polyline fill="none" opacity="1" stroke="#000000" stroke-width="1" points="440,415 440,420 "/>
<text x="565" y="425" dy="0.76em" text-anchor="middle" font-family="sans-serif" font-size="8.064516129032258" opacity="1" fill="#000000">
2022-05-29T00:00:00Z
</text>
<polyline fill="none" opacity="1" stroke="#000000" stroke-width="1" points="565,415 565,420 "/>
<text x="690" y="425" dy="0.76em" text-anchor="middle" font-family="sans-serif" font-size="8.064516129032258" opacity="1" fill="#000000">
2022-07-31T00:00:00Z
</text>
<polyline fill="none" opacity="1" stroke="#000000" stroke-width="1" points="690,415 690,420 "/>
<polyline fill="none" opacity="0.9" stroke="#E6194B" stroke-width="3" points="65,395 78,395 92,395 106,391 120,383 134,387 148,391 162,391 176,395 190,395 204,395 217,395 231,395 245,395 259,391 273,387 287,387 301,391 315,391 329,391 343,387 356,391 370,391 384,391 398,391 412,391 426,391 440,391 454,391 468,387 482,391 495,387 509,391 523,391 537,391 551,391 565,391 579,387 593,387 607,387 621,387 634,387 648,391 662,391 676,391 690,387 704,383 718,391 732,391 746,391 760,391 774,391 "/>
<polyline fill="none" opacity="0.9" stroke="#3CB44B" stroke-width="3" points="65,411 78,411 92,411 106,411 120,411 134,411 148,411 162,411 176,411 190,411 204,411 217,411 231,411 245,411 259,411 273,411 287,411 301,411 315,411 329,411 343,411 356,407 370,411 384,411 398,411 412,407 426,407 440,407 454,407 468,407 482,407 495,407 509,407 523,407 537,407 551,407 565,407 579,407 593,407 607,407 621,407 634,407 648,407 662,407 676,407 690,407 704,407 718,407 732,407 746,407 760,407 774,407 "/>
<polyline fill="none" opacity="0.9" stroke="#FFE119" stroke-width="3" points="65,321 78,325 92,317 106,317 120,321 134,321 148,325 162,317 176,317 190,321 204,317 217,321 231,321 245,329 259,344 273,313 287,302 301,302 315,290 329,298 343,286 356,263 370,278 384,278 398,274 412,274 426,271 440,271 454,267 468,282 482,274 495,271 509,282 523,274 537,282 551,290 565,298 579,294 593,294 607,286 621,290 634,294 648,294 662,290 676,290 690,298 704,294 718,298 732,290 746,302 760,294 774,274 "/>
<polyline fill="none" opacity="0.9" stroke="#0082C8" stroke-width="3" points="65,387 78,387 92,387 106,387 120,387 134,387 148,387 162,387 176,383 190,387 204,383 217,383 231,383 245,387 259,391 273,379 287,376 301,376 315,372 329,376 343,372 356,368 370,372 384,368 398,368 412,372 426,368 440,368 454,368 468,372 482,368 495,364 509,372 523,368 537,368 551,368 565,372 579,372 593,368 607,368 621,372 634,372 648,372 662,372 676,372 690,372 704,376 718,372 732,372 746,372 760,372 774,368 "/>
<polyline fill="none" opacity="0.9" stroke="#F58230" stroke-width="3" points="65,383 78,391 92,387 106,391 120,387 134,387 148,387 162,391 176,391 190,391 204,391 217,391 231,391 245,391 259,391 273,391 287,391 301,391 315,391 329,391 343,387 356,387 370,391 384,391 398,387 412,387 426,383 440,383 454,387 468,387 482,387 495,387 509,387 523,387 537,387 551,391 565,387 579,387 593,387 607,387 621,387 634,391 648,387 662,387 676,391 690,387 704,387 718,391 732,387 746,391 760,391 774,391 "/>
<polyline fill="none" opacity="0.9" stroke="#911EB4" stroke-width="3" points="65,88 78,107 92,80 106,88 120,96 134,96 148,96 162,103 176,96 190,96 204,99 217,92 231,103 245,123 259,131 273,88 287,88 301,88 315,80 329,76 343,72 356,25 370,53 384,61 398,41 412,57 426,53 440,68 454,61 468,68 482,57 495,72 509,61 523,64 537,61 551,80 565,84 579,68 593,80 607,96 621,88 634,99 648,99 662,64 676,96 690,88 704,72 718,119 732,88 746,115 760,80 774,64 "/>
<rect x="652" y="139" width="118" height="161" opacity="1" fill="#FFFFFF" stroke="none"/>
<rect x="652" y="139" width="118" height="161" opacity="1" fill="none" stroke="#000000"/>
<text x="692" y="149" dy="0.76em" text-anchor="start" font-family="sans-serif" font-size="16.129032258064516" opacity="1" fill="#000000">
rust
</text>
<text x="692" y="174" dy="0.76em" text-anchor="start" font-family="sans-serif" font-size="16.129032258064516" opacity="1" fill="#000000">
golang
</text>
<text x="692" y="199" dy="0.76em" text-anchor="start" font-family="sans-serif" font-size="16.129032258064516" opacity="1" fill="#000000">
python
</text>
<text x="692" y="224" dy="0.76em" text-anchor="start" font-family="sans-serif" font-size="16.129032258064516" opacity="1" fill="#000000">
javascript
</text>
<text x="692" y="249" dy="0.76em" text-anchor="start" font-family="sans-serif" font-size="16.129032258064516" opacity="1" fill="#000000">
ruby
</text>
<text x="692" y="274" dy="0.76em" text-anchor="start" font-family="sans-serif" font-size="16.129032258064516" opacity="1" fill="#000000">
c++
</text>
<polyline fill="none" opacity="0.9" stroke="#E6194B" stroke-width="1" points="662,157 687,157 "/>
<polyline fill="none" opacity="0.9" stroke="#3CB44B" stroke-width="1" points="662,182 687,182 "/>
<polyline fill="none" opacity="0.9" stroke="#FFE119" stroke-width="1" points="662,207 687,207 "/>
<polyline fill="none" opacity="0.9" stroke="#0082C8" stroke-width="1" points="662,232 687,232 "/>
<polyline fill="none" opacity="0.9" stroke="#F58230" stroke-width="1" points="662,257 687,257 "/>
<polyline fill="none" opacity="0.9" stroke="#911EB4" stroke-width="1" points="662,282 687,282 "/>
</svg>
